<?xml version="1.0" encoding="UTF-8"?>
<svg id="Calque_2" data-name="Calque 2" xmlns="http://www.w3.org/2000/svg" viewBox="0 0 66.06 46.22">
  <defs>
    <style>
      .cls-1 {
        fill: #cadda0;
      }

      .cls-1, .cls-2 {
        stroke-width: 0px;
      }

      .cls-3 {
        opacity: .35;
      }

      .cls-2 {
        fill: #95c11f;
      }

      .cls-4 {
        opacity: .26;
      }

      .cls-5 {
        opacity: .46;
      }

      .cls-6 {
        opacity: .17;
      }
    </style>
  </defs>
  <g id="Calque_1-2" data-name="Calque 1">
    <ellipse class="cls-1" cx="33.03" cy="23.11" rx="33.03" ry="23.11"/>
    <path class="cls-1" d="m11.56,26.06h4c.64,0,1.31-.28,1.77-.73s.76-1.15.73-1.77-.24-1.32-.73-1.77-1.09-.73-1.77-.73h-4c-.64,0-1.31.28-1.77.73s-.76,1.15-.73,1.77.24,1.32.73,1.77,1.09.73,1.77.73h0Z"/>
    <g class="cls-6">
      <path class="cls-2" d="m23.11,22.06h3.11c.64,0,1.31-.28,1.77-.73.24-.23.42-.49.52-.8.16-.3.23-.62.22-.96-.03-.65-.24-1.32-.73-1.77s-1.09-.73-1.77-.73h-3.11c-.64,0-1.31.28-1.77.73-.24.23-.42.49-.52.8-.16.3-.23.62-.22.96.03.65.24,1.32.73,1.77s1.09.73,1.77.73h0Z"/>
    </g>
    <g class="cls-5">
      <path class="cls-2" d="m42.67,22.06c3.22,0,3.22-5,0-5s-3.22,5,0,5h0Z"/>
    </g>
    <g class="cls-3">
      <path class="cls-2" d="m10.22,30.06c3.22,0,3.22-5,0-5s-3.22,5,0,5h0Z"/>
    </g>
    <g class="cls-3">
      <path class="cls-2" d="m46.22,11.83c3.22,0,3.22-5,0-5s-3.22,5,0,5h0Z"/>
    </g>
    <g class="cls-4">
      <path class="cls-2" d="m54.67,35.83c3.22,0,3.22-5,0-5s-3.22,5,0,5h0Z"/>
    </g>
  </g>
</svg>